<svg version="1.0" xmlns="http://www.w3.org/2000/svg" width="700pt" height="700pt" viewBox="0 0 700 700"><g transform="translate(0.000000,700.000000) scale(0.100000,-0.100000)" fill="#000" stroke="none"><path d="M2212 5643c-5-16-354-959-776-2096-421-1137-766-2070-766-2073 0-2 242-4 539-4 419 0 541 3 548 13 5 6 68 180 139 385l129 372 845-2 845-3 131-380 131-380 180-3 181-2 27-63c112-258 336-496 606-641 93-50 296-121 378-132l51-7V314 0h190 190l2 312 3 311 70 14c396 79 758 357 939 721 73 145 126 350 126 483v59h-159-158l-7-79c-21-250-156-503-353-659-212-169-499-254-753-223-318 39-590 201-750 446l-52 80 186 3c139 2 186 6 186 15 0 6-348 950-773 2097l-772 2085-646 3-647 2-10-27zm946-1803 280-815-566-3c-311-1-567 0-569 2-3 2 123 373 279 825 155 451 286 817 290 813 4-4 133-374 286-822z"/><path d="M5525 3610c-129-14-234-66-336-169-51-51-86-97-107-141-60-123-62-141-62-831 0-591 1-630 20-703 27-105 73-189 145-262 176-178 437-223 663-112 92 45 208 160 250 248 63 130 62 119 62 842v657l-25 78c-83 261-332 421-610 393z"/></g></svg>